<svg width="190" height="190" viewBox="0 0 190 190" xmlns="http://www.w3.org/2000/svg">
  <g fill="none" fill-rule="evenodd">
    <path d="M39.724 61.344c-3.093-14.981-3.757-26.471-1.757-34.814 1.188-4.963 3.362-9.011 6.667-11.932 3.49-3.083 7.902-4.596 12.859-4.596 8.178 0 16.775 3.725 25.963 10.802 3.747 2.887 7.636 6.366 11.676 10.44.321-.413.684-.803 1.089-1.164C107.64 19.915 117.255 13.599 125.478 11.164c4.89-1.448 9.48-1.586 13.66-.18 4.413 1.483 7.93 4.55 10.41 8.845 4.094 7.088 5.174 16.403 3.647 27.904-.622 4.688-1.686 9.794-3.188 15.327.566.069 1.135.194 1.698.38 14.489 4.797 24.748 9.955 30.96 15.849 3.695 3.507 6.108 7.412 6.98 11.734.922 4.562.024 9.137-2.454 13.43-4.086 7.078-11.6 12.66-22.304 17.082-4.298 1.776-9.161 3.384-14.594 4.83.248.559.44 1.153.569 1.776 3.093 14.98 3.756 26.47 1.757 32.814-1.189 4.963-3.363 9.011-6.668 11.932-3.49 3.083-7.902 4.596-12.86 4.596-8.177 0-16.774-3.725-25.962-10.802-3.787-2.918-7.719-6.44-11.804-10.57-.42.657-.937 1.267-1.547 1.81-11.42 10.166-21.034 16.482-29.257 18.917-4.89 1.448-9.48 1.586-13.66.18-4.413-1.483-7.93-4.55-10.41-8.845-4.094-7.089-5.174-16.403-3.647-27.904.644-4.857 1.763-10.164 3.353-15.929-.622-.063-1.246-.194-1.863-.398-14.489-4.797-24.748-9.955-30.96-15.85-3.696-3.507-6.109-7.411-6.981-11.733-.922-4.562-.024-9.138 2.454-13.43 4.087-7.078 11.6-12.66 22.304-17.082 4.426-1.829 9.451-3.48 15.082-4.959-.2-.49-.359-1.006-.47-1.544z" fill="#ffffff" fill-rule="nonzero" transform="translate(95, 95) scale(-1, 1) translate(-95, -95)"/>
    <path d="M80.397 64h29.211c1.791 0 3.445.958 4.337 2.512l14.632 25.5a5.321 5.321 0 0 1 0 4.977l-14.632 25.5c-.891 1.553-2.546 2.512-4.337 2.512H80.397c-1.791 0-3.445-.959-4.337-2.512L61.428 96.989a5.321 5.321 0 0 1 0-4.977l14.632-25.5C76.952 64.958 78.606 64 80.397 64zm25.59 6.277c1.792 0 3.447.958 4.338 2.513l11.017 19.224a5.321 5.321 0 0 1 0 4.972l-11.017 19.224c-.891 1.555-2.546 2.513-4.338 2.513H84.017c-1.792 0-3.447-.958-4.338-2.513L68.662 96.986a5.321 5.321 0 0 1 0-4.972l11.017-19.224c.891-1.555 2.546-2.513 4.338-2.513h21.97zm-3.907 6.864H87.924c-1.79 0-3.443.958-4.335 2.51l-7.1 12.359a5.321 5.321 0 0 0 0 4.98l7.1 12.36c.892 1.55 2.545 2.509 4.335 2.509h14.157c1.79 0 3.443-.958 4.335-2.51l7.1-12.359a5.321 5.321 0 0 0 0-4.98l-7.1-12.36c-.892-1.55-2.545-2.509-4.335-2.509H91.686zm-3.762 6.57c1.79 0 3.442.956 4.334 2.507l3.33 5.788a5.143 5.143 0 0 1 0 4.988l-3.33 5.787c-.892 1.55-2.545 2.507-4.334 2.507h-6.633c-1.79 0-3.442-.956-4.334-2.507l-3.331-5.787a5.143 5.143 0 0 1 0-4.988l3.33-5.788c.892-1.55 2.545-2.507 4.334-2.507h6.634zm-3.316 6.473c-1.544 0-2.97.822-3.74 2.157a4.4 4.4 0 0 0 0 4.315c.771 1.335 2.196 2.158 3.74 2.158 1.545 0 2.97-.823 3.741-2.158a4.4 4.4 0 0 0 0-4.315c-.771-1.335-2.196-2.157-3.74-2.157zM60 94.501h7.768" fill="#ffffff"/>
    <path d="M54.86 108.358c1.312-.75 2.976-.283 3.718 1.041l.475.845c3.803 6.74 7.766 13.136 11.888 19.191 4.867 7.15 10.341 14.39 16.421 21.716.955 1.15.823 2.86-.296 3.847l-.612.537c-20.108 17.568-33.176 21.077-39.206 10.527-5.898-10.32-3.764-29.08 6.403-56.28.226-.603.654-1.107 1.21-1.425zm85.673 20.684c1.452-.257 2.842.7 3.126 2.153l.153.792c4.97 26.009 1.47 39.013-10.497 39.013-11.706 0-26.607-11.09-44.703-33.273-.401-.492-.618-1.11-.613-1.745.013-1.501 1.236-2.707 2.731-2.694l.954.007c7.621.041 15.03-.223 22.226-.793 8.498-.674 17.373-1.827 26.623-3.46zM147.41 73.812c.523-1.41 2.1-2.148 3.546-1.663l.787.267c25.841 8.802 35.66 18.476 29.456 29.021-6.07 10.315-23.714 17.824-52.937 22.527-.648.104-1.313-.018-1.879-.345-1.336-.772-1.781-2.46-.994-3.771l.5-.837c3.988-6.695 7.592-13.357 10.813-19.987 3.803-7.83 7.372-16.234 10.707-25.212zM61.738 66.036c.649-.104 1.313.018 1.88.345 1.335.772 1.78 2.46.993 3.771l-.5.837c-3.988 6.694-7.592 13.357-10.813 19.987-3.803 7.83-7.372 16.234-10.707 25.212-.523 1.41-2.1 2.149-3.546 1.663l-.788-.266C12.416 108.782 2.598 99.108 8.802 88.563c6.068-10.315 23.713-17.824 52.936-22.527zm41.808-31.57c20.108-17.569 33.176-21.078 39.206-10.528 5.898 10.32 3.764 29.08-6.403 56.28-.226.603-.654 1.107-1.21 1.425-1.311.75-2.975.283-3.717-1.041l-.475-.845c-3.804-6.74-7.767-13.136-11.888-19.191-4.867-7.15-10.341-14.39-16.422-21.716-.955-1.15-.823-2.86.296-3.847zM57.684 18c11.706 0 26.607 11.09 44.703 33.273.401.492.618 1.11.613 1.746-.013 1.5-1.236 2.707-2.731 2.694l-.954-.007c-7.621-.041-15.03.223-22.226.793-8.498.674-17.373 1.827-26.623 3.46-1.452.256-2.842-.7-3.126-2.153l-.153-.792C42.218 31.005 45.717 18 57.684 18z" fill="#ffffff"/>
  </g>
</svg>