<svg viewBox="0 0 1309 1075" xmlns="http://www.w3.org/2000/svg">
  <path d="M258.188,0.987c-51.217,0 -96.967,32.03 -114.488,80.159l-132.717,364.517c-17.279,47.47 -3.479,100.679 34.7,133.762l536.4,464.825c46.192,40.029 114.892,39.638 160.625,-0.912l520.988,-461.934c37.296,-33.071 50.687,-85.525 33.808,-132.425l-132.241,-367.412c-17.4,-48.346 -63.259,-80.58 -114.638,-80.58l-792.438,0.001Z" fill="#ffffff" fill-rule="nonzero"/>
  <path d="M1081.94,163.608l65.675,182.463l-987.525,-0l66.537,-182.75c11.892,-32.658 42.821,-54.488 77.575,-54.754l698.796,-0c35.329,-0.267 66.979,21.8 78.942,55.041" fill="#ffffff" opacity="0.5"/>
</svg>